<svg width="40" height="40" viewBox="0 0 40 40" fill="none" xmlns="http://www.w3.org/2000/svg">
	<path d="M28.3333 25L18.3333 15M28.3333 15L18.3333 25" stroke="white" stroke-width="3" stroke-linecap="round"/>
	<path d="M12.3333 8.00001C12.6438 7.58602 13.0464 7.25001 13.5093 7.01858C13.9721 6.78716 14.4825 6.66667 15 6.66667H33.3333C34.2174 6.66667 35.0652 7.01786 35.6903 7.64298C36.3155 8.2681 36.6667 9.11595 36.6667 10V30C36.6667 30.8841 36.3155 31.7319 35.6903 32.357C35.0652 32.9821 34.2174 33.3333 33.3333 33.3333H15C14.4825 33.3333 13.9721 33.2129 13.5093 32.9814C13.0464 32.75 12.6438 32.414 12.3333 32L4.83332 22C4.40058 21.423 4.16666 20.7212 4.16666 20C4.16666 19.2788 4.40058 18.577 4.83332 18L12.3333 8.00001Z" stroke="white" stroke-width="3" stroke-linecap="round" stroke-linejoin="round"/>
</svg>
